<svg width="25" height="25" viewBox="0 0 25 25" fill="none" xmlns="http://www.w3.org/2000/svg">
<g clip-path="url(#clip0_983_8625)">
<path d="M3.33008 12.6437C3.33008 13.8557 3.56879 15.0557 4.03257 16.1754C4.49636 17.2951 5.17614 18.3124 6.0331 19.1694C6.89006 20.0264 7.90743 20.7062 9.02711 21.1699C10.1468 21.6337 11.3468 21.8724 12.5588 21.8724C13.7707 21.8724 14.9708 21.6337 16.0904 21.1699C17.2101 20.7062 18.2275 20.0264 19.0845 19.1694C19.9414 18.3124 20.6212 17.2951 21.085 16.1754C21.5488 15.0557 21.7875 13.8557 21.7875 12.6437C21.7875 11.4318 21.5488 10.2317 21.085 9.11207C20.6212 7.99239 19.9414 6.97503 19.0845 6.11806C18.2275 5.2611 17.2101 4.58132 16.0904 4.11753C14.9708 3.65375 13.7707 3.41504 12.5588 3.41504C11.3468 3.41504 10.1468 3.65375 9.02711 4.11753C7.90743 4.58132 6.89006 5.2611 6.0331 6.11806C5.17614 6.97503 4.49636 7.99239 4.03257 9.11207C3.56879 10.2317 3.33008 11.4318 3.33008 12.6437Z" stroke="white" stroke-width="1.53812" stroke-linecap="round" stroke-linejoin="round"/>
<path d="M12.5587 15.7198L8.45703 11.6182H16.6603L12.5587 15.7198Z" stroke="white" stroke-width="1.53812" stroke-linecap="round" stroke-linejoin="round"/>
</g>
<defs>
<clipPath id="clip0_983_8625">
<rect width="24.6099" height="24.6099" fill="white" transform="translate(0.253906 0.338867)"/>
</clipPath>
</defs>
</svg>
